:SAMPLES-PER-SECOND 30
:FULLY-SPECIFIED
:DEGREES
771
root  -14.0631 40.2717 -0.0441401 46.0436 86.305 43.7686
RightUpLeg  -1.61067 -13.2157 -8.87398
RightLeg  22.61 -5.33042 -2.75006
RightFoot  -11.7439 -0.0497745 10.1078
RightToes  0.000482159 0.542163 -0.142577
Spine  6.73846 1.04989 -1.65273
Spine1  1.59528 0.856811 0.122025
HEad  10.8477 5.01338 -1.16947
LeftShoulder1  3.45071 -6.79701 -27.3527
LeftArm  -15.561 28.2856 -7.66808
LeftForeArm  26.9191 -12.2104 -1.31413
LeftHand  -0.25398 0.0180481 5.50724
RightShoulder  1.37686 1.97014 18.637
RightArm  -14.9939 -23.8312 10.7719
RightForeArm  -2.32839 7.22086 3.97895
RightHand  -1.02093 2.69306 -14.859
LeftUpLeg  3.73024 4.09672 -3.02849
LeftLeg  6.70314 19.0548 -3.42106
LeftFoot  -12.7581 0.0877572 0.89151
LeftToes  1.06246e-005 4.65854e-005 -8.18502e-006
772
root  -13.9404 40.1915 -0.340257 30.2839 85.5604 28.0925
RightUpLeg  -6.12137 -9.86236 -8.35926
RightLeg  30.4834 -7.51564 -5.00307
RightFoot  -8.62135 -0.314596 11.1251
RightToes  0.000482159 0.542163 -0.142577
Spine  7.57971 1.34906 -1.43893
Spine1  0.835647 1.14876 -0.0716098
HEad  11.2916 5.21922 -0.949294
LeftShoulder1  3.37239 -6.56757 -27.3345
LeftArm  -15.6711 29.5507 -7.94359
LeftForeArm  25.474 -12.2121 -1.22176
LeftHand  -0.25398 0.0180481 5.50724
RightShoulder  1.40558 2.07322 18.6914
RightArm  -14.7707 -23.125 10.4135
RightForeArm  -2.12627 7.26284 4.08362
RightHand  -0.988387 2.62731 -14.5122
LeftUpLeg  3.87716 4.41253 -3.04353
LeftLeg  7.29266 19.966 -3.31773
LeftFoot  -13.7582 0.100164 0.833758
LeftToes  1.06246e-005 4.65854e-005 -8.18502e-006
773
root  -13.788 40.1572 -0.60469 22.4266 85.1284 20.4339
RightUpLeg  -10.9283 -8.44789 -7.7986
RightLeg  38.4638 -8.4173 -7.34457
RightFoot  -4.45337 -0.547753 8.68625
RightToes  0.000482159 0.542163 -0.142577
Spine  8.71768 1.34004 -1.44723
Spine1  0.0782233 1.09968 0.0683661
HEad  11.2776 5.49234 -0.571029
LeftShoulder1  3.34446 -6.49541 -27.2949
LeftArm  -16.1201 30.8301 -8.27284
LeftForeArm  23.8762 -12.4383 -1.08186
LeftHand  -0.25398 0.0180481 5.50724
RightShoulder  1.45694 2.23073 18.9114
RightArm  -14.8642 -22.5531 10.3769
RightForeArm  -2.4145 8.05103 4.26037
RightHand  -1.01781 2.79217 -14.6431
LeftUpLeg  4.42944 4.57017 -2.99934
LeftLeg  7.20877 20.2881 -3.45195
LeftFoot  -14.3041 0.10348 0.682944
LeftToes  1.06246e-005 4.65854e-005 -8.18502e-006
774
root  -13.5877 40.1269 -0.83842 17.4452 85.0197 15.6533
RightUpLeg  -15.4206 -8.29025 -7.0397
RightLeg  44.3971 -7.22258 -7.78106
RightFoot  -1.58722 -0.509407 5.76494
RightToes  0.000482159 0.542163 -0.142577
Spine  9.70689 1.14944 -1.44632
Spine1  -0.321883 0.8774 0.184309
HEad  10.9361 5.62119 -0.205437
LeftShoulder1  3.39462 -6.6241 -27.3687
LeftArm  -16.6458 31.7261 -8.76506
LeftForeArm  23.1777 -12.6616 -0.950693
LeftHand  -0.25398 0.0180481 5.50724
RightShoulder  1.51629 2.39897 19.2163
RightArm  -15.1191 -22.0703 10.7653
RightForeArm  -2.84095 9.01579 4.43199
RightHand  -1.12852 3.24148 -15.3903
LeftUpLeg  5.14972 4.68674 -2.92672
LeftLeg  6.91765 20.2591 -3.63151
LeftFoot  -14.7312 0.103218 0.499113
LeftToes  1.06246e-005 4.65854e-005 -8.18502e-006
775
root  -13.3254 40.0884 -1.04797 11.1393 85.0858 9.50793
RightUpLeg  -19.1031 -8.75112 -5.79339
RightLeg  46.9295 -5.03291 -6.08016
RightFoot  -0.926481 -0.492663 5.32804
RightToes  0.000482159 0.542163 -0.142577
Spine  10.5372 0.925685 -1.08388
Spine1  -0.54585 0.670228 0.133756
HEad  10.6635 5.52697 -0.0189461
LeftShoulder1  3.50764 -6.8572 -27.718
LeftArm  -17.3467 32.0593 -9.66262
LeftForeArm  23.0887 -12.8764 -0.850237
LeftHand  -0.25398 0.0180481 5.50724
RightShoulder  1.56687 2.53111 19.5137
RightArm  -15.4899 -21.7041 11.6075
RightForeArm  -2.9423 9.77946 4.51016
RightHand  -1.2428 3.72263 -16.0596
LeftUpLeg  5.8938 4.82741 -2.71756
LeftLeg  6.73245 20.2708 -3.60963
LeftFoot  -15.2756 0.10734 0.455968
LeftToes  1.06246e-005 4.65854e-005 -8.18502e-006
776
root  -12.9982 40.0466 -1.22872 3.35889 85.2459 1.91406
RightUpLeg  -21.8322 -9.61013 -4.02341
RightLeg  45.9851 -3.73876 -4.45597
RightFoot  -1.26958 -0.596218 6.66071
RightToes  0.000482159 0.542163 -0.142577
Spine  11.4122 0.724752 -0.57279
Spine1  -0.815643 0.495311 0.147179
HEad  10.5975 5.31247 -0.0419838
LeftShoulder1  3.65854 -7.1117 -28.347
LeftArm  -18.3893 31.8494 -11.1408
LeftForeArm  22.7594 -13.1313 -0.792104
LeftHand  -0.25398 0.0180481 5.50724
RightShoulder  1.65239 2.75372 19.9878
RightArm  -15.9526 -21.5328 12.613
RightForeArm  -2.84696 10.2701 4.50445
RightHand  -1.28232 3.91828 -16.222
LeftUpLeg  6.66118 4.96263 -2.37847
LeftLeg  6.73743 20.1918 -3.39027
LeftFoot  -15.8869 0.109107 0.349606
LeftToes  1.06246e-005 4.65854e-005 -8.18502e-006
